/* XPM */
static char *result[] = {
/* columns rows colors chars-per-pixel */
"64 64 67 1 ",
"  c #040404",
". c #080807",
"X c #0C0C0B",
"o c #100F0E",
"O c #10100F",
"+ c #151413",
"@ c #181716",
"# c #191817",
"$ c #1D1C1A",
"% c #201F1E",
"& c #21201F",
"* c #252422",
"= c #282725",
"- c #2A2826",
"; c #2D2C2A",
": c #302F2D",
"> c #32312F",
", c #363431",
"< c #393734",
"1 c #3B3936",
"2 c #3E3C39",
"3 c #413E3C",
"4 c #44413E",
"5 c #464441",
"6 c #494643",
"7 c #4C4946",
"8 c #4F4C48",
"9 c #514E4B",
"0 c #54514E",
"q c #575450",
"w c #595653",
"e c #5D5A55",
"r c #5F5C58",
"t c #615E59",
"y c #65625D",
"u c #68645F",
"i c #6A6661",
"p c #6D6A65",
"a c #706C67",
"s c #726E69",
"d c #75716C",
"f c #78746F",
"g c #7A7671",
"h c #7D7974",
"j c #817C77",
"k c #837F79",
"l c #86817B",
"z c #89847E",
"x c #8B8781",
"c c #8D8984",
"v c #908C87",
"b c #928E89",
"n c #95928C",
"m c #98948F",
"M c #9A9691",
"N c #9E9A95",
"B c #A19E99",
"V c #A4A19D",
"C c #A7A4A0",
"Z c #A9A6A2",
"A c #ACA9A4",
"S c #AFACA9",
"D c #B2AFAB",
"F c #B3B0AD",
"G c #B8B5B2",
"H c #C6C4C1",
"J c #CAC8C5",
/* pixels */
" -paldvnhjnMvjCclfMmNhsflvMZVy$  *ysidmgxlslxMVAVNnVGDFZMnAJHt$X",
"*whdfitiplhcjflxdskhllsdsCmVxp,$-7dippzyteppgvxxjljjCnxzkxVNvj1+",
"8atdywqredtat0eirryrisrrrddsfp6<yljfpte09e60rpgpy6ijplcgsxsegf2+",
"wgpwq451559qw88t4979q9wqee89q6-<gxxi6009096656rr026tpypdpsltsq;+",
"sdiq55;1246ew90967859998578r78$=tppu63550peqq<690609759wrrqq2,%X",
"txt93185tiw5speyie8837qe775152-,udw9257670wey94q924790w9wi0q9,%+",
"ycd04951er850ddy95314159r7q65,-2dBgq73445230ri62219879986ee68,$@",
"dcuueq858w086e06t811,547877e7:%,dNdw85466823w963<2709960q0w612=O",
"lcyd849590260w00dy8554799q899<%2jcupq666y084650225474448e9ti5,=X",
"gNdr50w445e80yw4yre7q85qr8750<-,jnpe0478q9696w8327<50q9qqwr063&$",
"lnsw9w4660w5889480808q99i894,2#<jvdew84690q8ew6509878eqr0qeq5<*X",
"pnju8r08wt6648008rqq85798755::%<ucse9w34096168w,14<2,55766w63*+O",
"wguw908660r94twwq7885155449<4*X-hxt045962651521422:,<>>>,1,,,$++",
"4q044>4222244->85554:;1>-4,;*&#+6t85><,11<521>,>22>;;;*-=-*%=#XX",
"+-81*;-*&&$;>&>->--&&;%**;$%%$Oo+;;--$&$*-=$&@&-%*&%$=**$*-X$XX ",
"-;681w7;,>2,<>@O$%-22<,-1<-1:,-*-;,4:<;,1>>,;*+X+$:1;;,><:1,48;=",
"ghNnznlflppyp0+ .-8ffpypgnptspsyeypdiyyasgfau7#. *tfyihdufcrugzp",
"ppfVnvVVczzgda>@$0dpzNcvvbhhhdggghhgispdxzvlge2$%9dcldnhhVMNllgd",
"u95wglfuddhh08<:acppzlhgasfpptsrt0ypypy9ffdyu0>,0fksw00t0pgfdfgl",
"fp74w0rppyr88<&<lSnwywru8790e6eq868q0qq9y0r872*-rhpy06214706eqeh",
"pp00848w0yw05>%>znbgpqwr9ew507888577595654414:O-09t66825<<74885e",
"008r046wwr0664&>gclurreqri0006766956453e0,,<1,%=ep6<>4,,58821qe0",
"uw00255w0qr041%2cNgrr6009y8008856557570655<211&*zl05:<<55e9tuy7e",
"0000464000ur0>&>amur00r6ewq87q88366604q865u04;$>pMydpw4400eieer7",
"800yq0y2000qr1&6cNdppyfeys0q89e77056528e99ry0-$-wgfeqte7898ptqye",
"ryr80u78580rw445NBha08qq0ew86250qq6437q00e097,*2asy9qwq80rt8088e",
"w000wr00240641&4bNhfq97w,66455490q5qq8056rw27,&2bmpu96t54w0ee0e9",
"600e085075406;$>dzgdr05468q55812992505885574>,<=gkgs004qqw866q08",
"0806444101<2<*o,phyyiye;0t45245<285:<,6<2><44=&*wur925009754<276",
"42<11;4,4,:&-@@=08567742<2<,<::;<;,:,;*;184:;:>>217,:><;241,*,*:",
"&*&&$&&$$;#@&+O.+-1*:-#-5--%&&@@%$++++$*=<&%@+>X#&,;$%@++*%%%$*&",
"O@=>:>;,4::>41>&--94254418122$.+O+%->*1<4<2<<24,*269,;;%-<2,;$.X",
"X*q8qyhyry0idhhlhhzcVnMbsskNB<X .*8qyepdi8shhfcisycmxpeypdzli7+ ",
"*qdpiakyeifrfhhflcnNDNbxzcBNnc4%&egkkatillgNxknNxczcnchhhVxcnd2@",
"0cxhppye0q00qpdis0dhxhncllfulh8,eepkpyttipyfpryptfdtpddsspdfhe2%",
"tNxa90ewrqe045ry778tpteiupftey>,rksy964576ef8eir4qe0iyyrqr8895*%",
"pgpr88558r086527777w6q5qwe094;%<hdt851,3848eeqqe09e668q6796r85$ ",
"pzr6558878q8q687445874949wqe8<%:thq83715er88eprpwq7649uq507722*X",
"hVlr54555618ew5<2<55057528q552*-afy78845qr679hp92<222106y6w65<*+",
"sVfe55258q1205422255924<q99922%:fkyq8576eerwq88qiq<22458w9898<%+",
"lzghw529t98745624558465e58qt:<*;flie989889,5iqe8ir7776w890598>;+",
"cndryqw9978788747745858889s86,$4aheee89846reese0ieiew94eyr979:-+",
"fvdqt6658ww88795767268488e082,$*fcy909407r956ieeqteqewqqhp9782$#",
"ixpeq0e2,e415782<241>1<755q1;;+;iVht8a989eq7qerq8i9r858ee8774:*X",
"wde86779577142,7<111:>;;<<,<**+,thtw8e642e09ewsfr88047545884:-O ",
"3e823,,;1;115>,-><2=---*;2;**+O*8ty4212211116798w5<5<<2><4::;&O ",
"$;;*;@%%$$$$+##-#$&&$-$$%*$$@   %-5;->-*$$-#-11<>::*&#*$;,$$$+. ",
":<>1,<;>1*;;>*$XO+&,:;14,>,>,5-*<2q<7541;,-;1$@O+*>254,,78<;1<:*",
"yssppueiayp0y6@  &0iywyutphyepspazNcMnzzlfppp0@X.:0hldfhlVlpsfpp",
"zbbcggfdpssgpy>@+4fxstdiakczlghdtyjVcNNFlczghd1&&rkdNZVNVBclcgln",
"tuspitt0pytqw8>:9pdae700eqiiiisfdw0uzpfphgnjp04,sZsdVncbghchdgfd",
"9eetwyq6qw9663+-0put99464549qqipyu45qqupurqr04%4vFNwfeihywwywwer",
"t8e7tt9w4<3,,;%&970757532<525q480ur8020qpt8862-2mZZnhiriuyw6qeq0",
"8e979t9y01,<<;+<wy42<<<<,7054qqq5082848w0r804-$4VNclpsyyefw008wq",
"9t7769e074>>>>*>dk82,,>149rytp990q08<5678080q2&2NAndpe087q04y6ee",
"q966q4y6q9tp1-%,pbydre52t89tqie9080w6768wwuw04*,lNipip88q00470w9",
"wq5q669eq8uaw,%;8yst9ia2600wwqw605w000r6eyyyd0;0cVhguppwyp00465q",
"9t0255e08yu8e<$4tiy7qq8q80w00ryq0w6600r2eqrrle90nSzcr7r000q6468q",
"993ew8e66se61<&1bhiq72q5688080yw9r007048ew0w6814cZzarw4714052448",
"7633900244t6:<$;phrt88580044880ww5y6064w067r0,%<lnhur05808056027",
"22912136,=3<1*@<qee75407q866<346800002640448,*$>lzdywee;5e56652,",
"<;,*;,>33:4:<&$@7<1<4-,,11,2*;>4>124,14><21:-@#>884850:119522-:=",
"$%+o@@*&%:>$+$&.$;,:$*#@@$*$@@&&;:$*$$>$-*@@$++ O:2=:-%*:&;$%$+#",
"+$-::;14,><<<-%;%,44<,:-:;:,$.@O@&><&<>22,::1;,-148<:5,24824;.X."
};
