/* XPM */
static char *result[] = {
/* columns rows colors chars-per-pixel */
"64 64 217 2 ",
"   c #0A0B06",
".  c #0C0E05",
"X  c #0F1306",
"o  c #121306",
"O  c #161A03",
"+  c #191A04",
"@  c #14150A",
"#  c #16190B",
"$  c #1B1D0C",
"%  c #1C1C13",
"&  c #1E1D19",
"*  c #1C2207",
"=  c #1D230C",
"-  c #1E2113",
";  c #222402",
":  c #252C07",
">  c #23240C",
",  c #282709",
"<  c #242A0B",
"1  c #292D0F",
"2  c #2E3307",
"3  c #2C320B",
"4  c #3A3D00",
"5  c #32360C",
"6  c #222514",
"7  c #282715",
"8  c #252B14",
"9  c #2A2C14",
"0  c #23251A",
"q  c #262A1A",
"w  c #2A2D1C",
"e  c #263413",
"r  c #2C3315",
"t  c #2D331C",
"y  c #2F391B",
"u  c #323515",
"i  c #393616",
"p  c #343C13",
"a  c #3A3D16",
"s  c #32341C",
"d  c #39351B",
"f  c #343B1D",
"g  c #3A3C1D",
"h  c #252B20",
"j  c #2C2D22",
"k  c #302F26",
"l  c #2E3223",
"z  c #2E3525",
"x  c #333523",
"c  c #353A23",
"v  c #3A3D24",
"b  c #343629",
"n  c #363A2B",
"m  c #3A3D2B",
"M  c #373933",
"N  c #3C3D32",
"B  c #3A4619",
"V  c #3B421D",
"C  c #3F491A",
"Z  c #364223",
"A  c #3C4325",
"S  c #3D4925",
"D  c #3D432B",
"F  c #3E4A2B",
"G  c #3D4232",
"H  c #3F4A31",
"J  c #3F4139",
"K  c #494F14",
"L  c #41431B",
"P  c #4A471B",
"I  c #434B1D",
"U  c #4C531E",
"Y  c #58581C",
"T  c #424525",
"R  c #434B24",
"E  c #4A4D24",
"W  c #42452C",
"Q  c #48472F",
"!  c #444B2C",
"~  c #4A4D2D",
"^  c #4D5424",
"/  c #45512C",
"(  c #4C5628",
")  c #4B532D",
"_  c #525623",
"`  c #52562C",
"'  c #545B2D",
"]  c #585B28",
"[  c #424433",
"{  c #4C4731",
"}  c #454B33",
"|  c #4A4D34",
" . c #44463B",
".. c #464B3B",
"X. c #4A4D3B",
"o. c #504D36",
"O. c #465333",
"+. c #4C5334",
"@. c #4D5935",
"#. c #425239",
"$. c #4D533B",
"%. c #4E593B",
"&. c #515534",
"*. c #545B34",
"=. c #595E36",
"-. c #52553B",
";. c #58573A",
":. c #545B3B",
">. c #595E3C",
",. c #605D36",
"<. c #5A6125",
"1. c #55602E",
"2. c #5B622D",
"3. c #5B6335",
"4. c #5B6434",
"5. c #56603A",
"6. c #5C633B",
"7. c #5F683B",
"8. c #636433",
"9. c #636935",
"0. c #61663C",
"q. c #636A3C",
"w. c #696D3E",
"e. c #67703D",
"r. c #6A713E",
"t. c #4A4D42",
"y. c #4D5342",
"u. c #525543",
"i. c #5B5741",
"p. c #555B43",
"a. c #595D44",
"s. c #535649",
"d. c #565C4A",
"f. c #5A5E4C",
"g. c #5C5E52",
"h. c #615F43",
"j. c #556042",
"k. c #5D6343",
"l. c #56624A",
"z. c #5D624B",
"x. c #5C6B4B",
"c. c #5D6450",
"v. c #5D615A",
"b. c #616643",
"n. c #646B43",
"m. c #686E43",
"M. c #62664B",
"N. c #646B4B",
"B. c #696D4C",
"V. c #716E48",
"C. c #677041",
"Z. c #6B7244",
"A. c #6F7940",
"S. c #66714C",
"D. c #6C724B",
"F. c #6E784D",
"G. c #707646",
"H. c #717845",
"J. c #71754D",
"K. c #747A4B",
"L. c #626554",
"P. c #656B53",
"I. c #696D54",
"U. c #63675B",
"Y. c #666A5B",
"T. c #6A6D5A",
"R. c #677155",
"E. c #6C7253",
"W. c #6D7955",
"Q. c #6D735A",
"!. c #717553",
"~. c #7A7750",
"^. c #747A54",
"/. c #797D54",
"(. c #72765A",
"). c #747A5B",
"_. c #797D5B",
"`. c #6C6F65",
"'. c #6B7061",
"]. c #747663",
"[. c #747964",
"{. c #7A7D64",
"}. c #757968",
"|. c #7A7E6A",
" X c #7C7E71",
".X c #78804E",
"XX c #7B8155",
"oX c #7C825B",
"OX c #778260",
"+X c #7B8263",
"@X c #7C816A",
"#X c #7F8170",
"$X c #838A4E",
"%X c #888A54",
"&X c #82865E",
"*X c #848A5E",
"=X c #818465",
"-X c #838963",
";X c #888B67",
":X c #82866D",
">X c #848A6C",
",X c #8F8F6F",
"<X c #899265",
"1X c #86906C",
"2X c #8B926B",
"3X c #818573",
"4X c #848B74",
"5X c #888D73",
"6X c #8A8C7C",
"7X c #8B9272",
"8X c #8F967D",
"9X c #959A79",
"0X c #9DA479",
"qX c #8D9580",
"wX c #989E86",
"eX c #A1A787",
"rX c #A5AC83",
/* pixels */
"8 D 0.B.7.6.OX1X).).oXK.5.Z.;X!.).D./.D.Q.D.N.E.b.D.Z./.{.L.j @ v *.b.0.M.Q.:X).@X).n.D.^.D.w.Z.!.n.Z.Z.7.Z.b.7.Z.q..X-XeXB.w # ",
"W b.k.0.n.@.6.7.e.x.r.e.*.w.0.6.m.0.w.0.0.0.q.w.q.e.Z.A.b.M.n c +.=.=.n.b.b.Z.m.0.3.6.6.0.Z.m.!.^.D.D.6.Z.q.3.0.e.7.e.q.e.D.} # ",
"j.E.z.P.k.@.j.7.0.6.q.b.=.6.*.6.n.a.q.0.r.n.0.q.q.0.0.Z.b.L.t.J 6.3.M.I.6.7.q.q.e.9.4.0.3.Z.G.P.b.| N.B.S.S.S.S.q.q.7.9.q.n.| o ",
"k.(.T.l.y.F H D +.+.-.>.p.-.X.f.| s.-.k.r.0.0.3.e.3.3.m.n.t.h M N.G.[.Y.p.k.5.:.k.3.5.7.5.r.b.k.s.m ~ k.R.x.R..XR.N.S.=.j.>.x O ",
"D.D.P.5.H } e v D ! ..a.a.-.p.p.;.-.p.-.0.m.b.*.r.+.6.S.>.s.% h z.7.k.v...G } F y.j.l.a.6.q.*.p.u.! ) ` / R %.j.l.k.-.-.W x , 9 ",
"n.Z.k.y.F c +.! k.N.:.) M.6.6.b.0.j.;.:.=.0.q.6.6.+.6.>.+. .h b k.C.p.y.m F / O.O.! p.l.k.n.! -.t.D S / O.@.%.@.@.S.*.-.&.x > , ",
"k.w.D.%.S @.F a 4.2.) ~ 6.4.>.b.r.&.=.) 5.5.0.0.k.4.r.>.| b h G P.Z.N.s...S I S W ! +.>.k.N.! } G n @.O.O.O.O.O./ j.>.~ | x = 9 ",
"!.m.b.n.:.:.O.R _ ] _ ' 9.*.+.*.K.:.} ! v :.0.-.>.0.w.6.| x - M k.7.n.d.t.W I R { -.v D k.6.*.*.m D O.@.@.O.O.@.-.;.a.~ g W u 9 ",
"&XZ.q.I.$.! +.R _ Y K 4.w.6.) 6.G.k.| W Q } o.;.6.w.X.*.p.b 6 N N.3.b.T.s.X.} E 0.` o.[ $.3.+.[ H } ! / F F F O.p.-.h.B.T d d 9 ",
"/.n.r.:.W $.-.S I P 8.9.q.0.*.*.Z.b.>.| ;.&.~ i.M.j.+.| -.N w [ k.7.n.k.-.+.%.*.` o.| -.} a.!  .} *.) @.5.%.@.%.$.a.n.;.E T 9 L ",
"J.B.n.:.` =.W } ~ ` ,._ 4.*.3.&.3.' | ;.X.i.&.o.Y.-.;.&.G J & [ N.n.n.k.;.>.&.&.~ %.-.$.d.d.+.+.+.3.5.) :.5.%.k.+.u.n.*.E d i L ",
"B.B.E.b.+.k.p.$.p.0.K K I +.m.:.0.k.:.;.o.{ { ;.t.X.| ;.m m & M L.B.m.d.u.s.[ [ | +.| m X.u.z.m D } F Z V } ! X.+.$.b. .v , + + ",
"d.p.a.b.X.-.|  .} @.4.( S z.z.a.a.} $.+.Q v { { [ [ i.|  .q . j [.|.B.i. . .t.X.D | } m } G N [ D v s c c r y l b m D b b % + + ",
"[ -.-.$.$.n } W D D S } D t z $.H } W W u u m c s J W j j w % % X.L.;.X.m M m N m n | N m c n n D v y t f 5 e w t j q 0 j % @ o ",
"% D ;.} v x t r 8 8 8 y y q c 9 s t r > 6 u 1 w w d k 6 w t @ $ $ c v d s 7 s 7 q l l 6 q 8 q x 0 8 8 8 < 5 3 r q q l # & @ >   ",
"l n %.-.| p.$.v Z c } c Z Z - * : 8 r W D m W d W m m N m W j w s v T Q T m c m H c D m x x = - - 6 s S p a S Z S c m m  .u.m k ",
"}.}.qX4X).).W.E.D.N.R.z.c.y.= @ # e @.P.S.N.m.B.!._.I.g.!.T.T.k.a.n.D.~.w.n.n.b.I.(.!.I.P.-.& $ X 7 >.K.q.e.oXW.N.).:Xf.L.}.#XU.",
"Y.N.R.:XE.oXoX+X).!.|.}.Q.E.V * < *.B.n.^.5XoX).S.B.[._./.!.!.z.D./.XXXXV.!.B.k.D._.K.D.!.f.D 9 8 $.V.%X$Xr.<XOXoXwX6X3X}.{.}.`.",
"P.p./ %.N._.E.P.].(.[.|.u.+.f u N.>Xn.N.*X@X+XE.Z.b.I.K.K.m.K.>.Z.3.0.n.n.V.n.>.B.m.w.0.I.:.! ! $.].=XG.1.@.5.k.%.P.[.I.k.b.R.[.",
"(.S.+.W -.&.f.Q.T.c.z.$.$.p * B D.rX9X*.k.>.a.m.6.$.p.Z.G.6.G.k.q.:.=.>.=.;.;.@.M.=.9.` 6.) c v g.#XT.M.@.O.Z B C ! -.-.4.5.l.}.",
"N.D.%.%.&.T { a.s.f.d.u.} 3 ; V A.+X2X^.Z.=.*.w.5.-.p.0.b.$.>.6.m.@.%.+.4.` T +.~ L P a Q x @ j u.u.N.>.3.4.' ^ I Z X.:.7.3.@.a.",
"+.u.+.l.:.R ~ -.s.$.-. .} [ r ~ Z.F.oXq.9.4.2.*.3.6.@.k.s.| | -.=.4.4.*.5.R S ;.*.i d d m c 0 j g.Y.-.*.' 5.' ' ) :.6.3.' j.d.%.",
"z.d.p.y.D R ~ i.p.%.a.-.[ v > ~ A.W.oX4.4.U ^ ^ _ 3.! d.a.&.~ W +.+.6.3.@.E +.} T E a g g m w x |.|.p.| c ) ) ) ` 6.0.0.b.U...d.",
"+.>.k.s.G W ! $.>.=.L.u.u.s ; s !.4XL.a.@.+.j.( *.>.$.X.{ p.&.$.} +.3.+.-.F *.+.| | n.>.[ k $ D L.5XL.T.`.j.&.&.*.6.m.0.k.n.l.| ",
"+.6.6.7.3.+.%.W 0.6.>.} f.m 6 X.).).Z.k.n.>.'.:.x.Q.p.:.$.-.p.| X.%.+.| H Z ) j.%.-.k.N.u.w % t a.!.k.:.:.b.6.3.*.b.>.N.>.0.k.p.",
"3.b.@.>.3.=.) $.0.:.6.) s.J J  .B.q.0.6.0.*.:.=.>.k.k.O.} D  .k.p.u...[ F ! 5.:.:.q.6.%. .b j } T.D.5.*.=.4.=.0.6.B.k.%.*.6.:.6.",
"6.>.+.m.0.4.*.>.3.*.*.+.[ N 0 | 7.9.Z.q.=.4.3.0.' 0.0.+.+.| | 0.:.6.$.u.-.+.6.*.4.x.%.Z | c l H >X:X6.>.*.9.5.3.0.k.6.3.6.6.>.>.",
"X.:.@.6.r.6.@.*.0.7.5.*.| k & b N.*.q.7.4.q.6.9.3.3.3.+.*.=.&.3.*.6.*.*.a.*.6.=.' / } S y x c q [.^.0.k.@.6.5.3.0.m.0.*.7.k.3.-.",
"$.%.p.| 6.&.O./ 3.0.4.*.m 7 o b N.>.8.0.0.0.6.&.=.>.' | } +.*.*.) 9.=.v W @.&.T ! R S F F 8 = 8 a.N.>.| } } :.j.>.6.;.+.} &.X.p.",
"J M } +.$.D $.F +.+.! s 9 $ $ w y.+.o.o.o.$.| | D S ! v D c W ~ ) &.o.v n x r f / %.} t e y z f A T ~ g m n G z } $.W [ j M k b ",
"0 j w j 8 0 y - r x r > 6 $ $ o > v Q k m s 7 f } 8 r 8 A q 6 8 c w 7 6 6 * * e 9 A 9 > = = z O * t v d t - - - 6 x 7 w 0 j w k ",
"@ 0 k b n n D D %.v c W W [ v 9 x v ;.| W | Q ~ R %.+.+.6.& . $ > 8 7 s m r A V W A W L m F W v t | | y.G l z w k N J n k & o % ",
"@ x s.p.d.k.Q.b.m.k.+.Z.z.Q.}.(.B.D.Z.m.D.n.F.XXN.S.F.E.-Xm .   $ x y.u.z.k.N.x.5.+.b.D._.B._.m.>.b.|.|.].L.g.c.Y.].:X XL.t.& . ",
"x +.I.m.D.k.S.>.6.6.6.Z.a.I.|.(.!.K./.^.C.7.q.C.F.S.oXE.qX6X[ 6 0 z.).R.E.R.k.6.6.6.6.F._._.,X&XB.G.m.D.D.M.B.E.Q.=XXX+X{.`.M % ",
"s.z.Q.Z.B.6.l.d.6.a.i.b.&.M.T.P.I.>.D.{.Q.D.oXS.S.oXS.3.!.|.X.m a.n.0.n.x.l.x.5.b.6.>.Z.w.w.b.I.z.^.K.a.6.6.I.D.Z.>.G.q.L.g.N j ",
"v.6X[.B.y.u.l.d.c.u.f.p.X.+.p.L.X.{ $.k.B.k.j.x.x.P.).a.>.M.x m k.Z.3.k.q.O.F F $.| p.).>.m.B.M.$.0.m.i.M.f.P.N.m.6.0.=.0.u.0 j ",
"L.T.U.z.t.y.F F H l.y.y.t.J } ..X.O.~ 5.( @.F j.j.j.%.%.Q x > T {.D.-.%.@.Z c D $.D X.a.n.a.k.b.6.6.w.6.+.y.k.t.p.k.>.>.0.p.&   ",
"B.n.l.t.} W +.O.#.%.y.y.u.y.} | [ D R ( F F O.F @.6.*.>.W v ; w z.).:.%.S ! A R >.b.+.&.n.m.q.Z.n.0.6.0.| ;.7.a...u.*.*.&.{ 0 o ",
"0.m.S.z...S I R } } Z #.a.5.+.~ G Z F S @.F F S V =.6.W W v , 7 Q.(.n.%.O.+.S I ] 2.E ) 3.m.q.q.r.q.! &.| =.+.6.M.t.*.+.} H 0 # ",
"k.m.n.k...F C R o.-.m D >.6.4.' H D F / #.S S Z >.*.=.&.V m > 9 ).oXA.5.) ! } E 4.<.4.=.3.6.3.6.Z.m.! :.+.m.+.9.0.a.! *.} G - # ",
"^.r.b.I.p.} ! ) ,.;.$.| } 0.6.6.$.} F +.A F F j.! *.0.0.5 g > d ^.&XH.k.-.$.+./ U Y 4 R 6.6.*.3.m.0.-.,.;.0.*.9.>.0.-.5.~ c k 6 ",
"E.A.m.b.:.-.a.) ] ~ o.{ $.b.6.3.>.%.F F O.H O.%.-.0.6.4.R d > T B./.G.b.a.| +.+.L U 8.] :.Q.O.=.6.>.N.b.>.=.~ 0.k.q.3.9.*.D j % ",
"j.Z.0.=.*.| } } ) :.p.$.-.>.6.=.:.} ! Z H %.F y.-.q.6.` L d , L J._.m.;.] +.D -.~ 0.` _ ( k.} %.:.0.;.;.i.a.,.0.!.Z.>.9.=. .& j ",
"k.m.q.*.:.+.d.F *.0.*.! | -.>.} D F F D y Z Z #...>.N.m 5 u , =.n.9X|.M.-.R.$.$.-.,.<.] q.$.*.6.>.n.&.h.;.o.o.n.N.6.0.0.&.[ x @ ",
"n.n.m.*.>.X.$.&.6.6.>.D [ [ N X.c A c D f c y h m W } m w f L *.b.(.g.p.$.i.} W G =.` 4.C.5.3.k.b.%.+.;.~ o.o.| X.s.>.q.&.v - 6 ",
">.a.0.=.$.c n x m c D G } x n j x g D r r 3 u 9 c G n j w 6 ) &.X.M.L.| [ N m m m v Z A @.@.O.+.m.! A } T T T A W | W [ D t $ @ ",
"d x E T x $ 0 7 6 q 6 - - 6 - w - = 0 e : 2 : = r y q - - @ f d v v X.n j l 9 8 $ $ 9 * t n D D ~ x g u u r u 7 v W 7 w 0 6 # # ",
"v v T T v m x n m l c c n s 6 # - = r f p p F / D D D n W X.! D G  .d.D -. .W D v D c Z F 8 9 = = r S S | | v v o.-.N x G m c x ",
"B.!.!.m.n.h.>.M.T.L.P.a.c.y.6 X $ 9 ;.0.0.2.k.N.n.E.[.k.6.3.5.n.N.).4XD./.^.).^.q.S.D.n.S.:.r > * V >.+X#XQ.k.!.E.+X[.Y.U.P.L.L.",
"!.7X;X*X/.!.!.E.I.M.w.w.b.L.x 6 $ | ~.$Xr.4.S.n.S.).{.E.Z.7.4.3.4.q.C.n.0.q.q.3.q.e.Z.0.E.P.R r p >.oXQ.7X8XS.S.0.Z.b.M.(.N.N.S.",
"n.N.!.B.B.0.b.-.B.0.0.=.6.>.x x y.I.!.m.2.@.*.4.6.>.N.N.m.4.b.6.6.4.3.q.q.0.6.3.0.H.K.N.P.=.^ g S.XXn.W.0X8XI.+XZ.b.S.k.b.6.3.9.",
"m.p.a.z.;.0.:.) ;.;.4.' +.X.@ q u.T.L.k.) @./ @.R ~ ! >.l.p.P.E.b.k.) +.*.3.b.N.M.N.k.k.6.1.1 R *X<X+X*.^.>.M.@XB.6.6.n.k.=.4.q.",
"S.>.d.| j.6.+.-.! E 4.] W x 0 & y.t.u.$.! ) E L C A } [ ..p.} +.3.k.k.-.) T >.p.P.M.-.=.0.] 3 S 2X*X^.*XXXm.6.B.P.M.p.p.d.+.3.r.",
"@.7.y.| +.k.+.N.&.` E T ! w @ [ s.U.[ N c g V B f | u.-.} y.$.%.! %.:.Z +.T ~ a.j.b.3.4.=.( > ! 0XoXn.A.r.Z.q.7.>.).i.p.6.=.4.e.",
"=.=.| O.O.+.5.+.~ =.i u f v s =.Q.#Xt.G n c y v ! k.N.D.-.:.%.@.+.j.k.-.c R ) =.>.>.6.5.4.&.> v wX>Xn.C.Z.4.` ^ U *.-...>.=.4.=.",
"q.*.+.} -.! N.! :.-.k.N.D d v =.k.oX$.P.l.a.} ! b.6.n.D.3.:.*.+.*.m.7.m.-.=.=.0.6.:.Z.0.=.+., c }.).@.6.N.B.O.( ' *.-.) &.:.3.9.",
"q.4.5.y.O.! ) a.p...z.D.>.W 7 v $.b.*.j.:.a.I.O.*.b.Z.n.6.*.3.*.4.0.>.q.3.3.k.>.6.a.n.m.3.-.j s.@Xn.5.b.P.P.T.p.k.Q.:.@.! | 3.0.",
"e.9.0.*.+./ 6.%.+.L.N.7.k.m %  .k.b.&.+.-.-.>.*.| 6.Z.b.3.:.6.3.4.q.@.3.-.%.>.} -.-.Z.w.>.f.s.s.3X4.4.m.j.X.d.%.-.$.-.} ! $.3.4.",
"e.4.3.3.+.=.0.~ } E.k.*.F b - M 6XB.>.&.*.+.*.+.=.q.0.6.3.>.3.0.*.q.3.7.4.+.G y.j.3.w.k.+.u.N N @X0.q.0.=.>.;.:.R W >.X.+.+.*.*.",
"3.q.=.@.*.0.n.T R F j.@.t c = t I.!.6.3.q.6.) *.3.k.$.| 3.0.9.0.' 4.9.0.6.! } l.p.=.>.>.>.D j m {.q.3.0.8.>.>.;.$.O.-.@.*.=.| &.",
"6.| >.*.` 6.=.~ f 8 Z g Z - * c -.z.=.=.w.5.%.%.6.p.$.$.| >.3.*.*.+.@.n.0.+... .u.} X.u.c v d m ].0.w.0.h.M.h.k | @.) ) ' +.| ~ ",
"w.v Q T W =.' ! F t H z z = * * +.c L v $.x D m :.N m J W &.m | W [ } y.+.+.} n D m m c v L v m X.| &.-.| i.n [ D +.*.~ *.v m W ",
"~ ! v 7 6 r V e e x c 1 * = - X > x x c 6 q - - c 0 l 6 7 j w x j l - z - w Z w x w , , 7 9 7 $ > x W x v k w u c f ) f f q 6 y ",
"> v ~ v m f R +.Z v A T D f 8 Z 7 W [ | G D b x m c m M & % 0 0 & 0 z G j G G H [ m x x m v m s m J ;.W c } T R ! %.} W l # # @ "
};
