/* XPM */
static char *result[] = {
/* columns rows colors chars-per-pixel */
"64 64 142 2 ",
"   c #010101",
".  c #080603",
"X  c #0E0B05",
"o  c #110D07",
"O  c #140F08",
"+  c #161109",
"@  c #1C150C",
"#  c #1F180D",
"$  c #221A0E",
"%  c #261D10",
"&  c #2A1E11",
"*  c #311D11",
"=  c #2C2213",
"-  c #332615",
";  c #3D2416",
":  c #362917",
">  c #3A2C17",
",  c #362A18",
"<  c #3B2D19",
"1  c #3F311B",
"2  c #442314",
"3  c #422B19",
"4  c #4C2E1B",
"5  c #502C1B",
"6  c #44341D",
"7  c #4A351E",
"8  c #47381E",
"9  c #4A391F",
"0  c #57371E",
"q  c #52391F",
"w  c #4B3720",
"e  c #4D3B21",
"r  c #523E22",
"t  c #5A3D24",
"y  c #623F25",
"u  c #554124",
"i  c #5A4526",
"p  c #5D4827",
"a  c #564328",
"s  c #5C4629",
"d  c #5E492A",
"f  c #624526",
"g  c #604927",
"h  c #624729",
"j  c #6C462A",
"k  c #644C2B",
"l  c #6A4E2C",
"z  c #734F2D",
"x  c #67502D",
"c  c #6C522E",
"v  c #72542E",
"b  c #79542F",
"n  c #72592F",
"m  c #654E30",
"M  c #6B4E30",
"N  c #665130",
"B  c #6D5431",
"V  c #6F5835",
"C  c #735632",
"Z  c #7A5632",
"A  c #745933",
"S  c #7B5C34",
"D  c #765C38",
"F  c #7B5E39",
"G  c #7E6136",
"H  c #7D613A",
"J  c #815E35",
"K  c #825E39",
"L  c #836236",
"P  c #896536",
"I  c #896937",
"U  c #84643A",
"Y  c #89663B",
"T  c #86693D",
"R  c #8C6A3D",
"E  c #916D3D",
"W  c #93713E",
"Q  c #9A723E",
"!  c #A1753F",
"~  c #856641",
"^  c #8A6742",
"/  c #876941",
"(  c #8C6C42",
")  c #8E6F48",
"_  c #916E42",
"`  c #8E7143",
"'  c #947343",
"]  c #9A7643",
"[  c #977846",
"{  c #9B7945",
"}  c #957649",
"|  c #997649",
" . c #96784B",
".. c #9C7B4B",
"X. c #9C7E52",
"o. c #A27541",
"O. c #A37C45",
"+. c #AC7B45",
"@. c #A27E4A",
"#. c #B07F46",
"$. c #9E804D",
"%. c #9F8153",
"&. c #A68146",
"*. c #AD8246",
"=. c #A3824D",
"-. c #AB834A",
";. c #A7894F",
":. c #AD8A4E",
">. c #B48347",
",. c #B2854A",
"<. c #B38A4D",
"1. c #BA8C4C",
"2. c #BE924E",
"3. c #A38452",
"4. c #A68955",
"5. c #AB8B54",
"6. c #A28558",
"7. c #A48858",
"8. c #AB8E5A",
"9. c #B38D52",
"0. c #AD9157",
"q. c #AD915C",
"w. c #B59051",
"e. c #BA9354",
"r. c #B3955C",
"t. c #BA995B",
"y. c #B19461",
"u. c #B59862",
"i. c #BA9D62",
"p. c #BFA46A",
"a. c #C29250",
"s. c #C49957",
"d. c #C99C54",
"f. c #C39C5B",
"g. c #C89F5A",
"h. c #D0A253",
"j. c #D1A25A",
"k. c #DEA95A",
"l. c #C2A364",
"z. c #C1A56A",
"x. c #C8AB6A",
"c. c #D0B77C",
/* pixels */
"# $ X X X X + % % = % : , , = , - = 1 = = = = , 8 1 6 : < < < : : < - = : > > 8 t B N r k a e u # N s a u 9 6 8 - < # % % # = @ ",
"C k u v c c x u u u p d u p s x x a H u a x x C p i e u 9 q u i u p r 8 p r u c U c a A d k N N - ( V S i x x n c n H c I G L C ",
"L k c S G c r G u c n n p n x x i G ( S V A B x G n c S n g p x c i n S S n n n A A D S T B e d + I G s g c s v x A A G G x x C ",
"n k p c n p e x p p x p u i p s 6 c G d G V V d S d x S g g i x k 8 x i u x k x s c c c H k C 1 6 ' G p x L c c d n x a x n u S ",
"G S S n L x s i c x g G c n k x C u S G S H S k n A S x i n p c c s 8 k n x p x i Z E L h r g d 8 =.x c k g G x i D g d x S S G ",
"I c S A k I g g s g c c c G G c C w 9 i c g G S d G p v p n E I n v 8 u r x n n U i P S S N x C < R x k x g v c C S h c n x c S ",
"] c A c k k H v d c c S A O.9 G c r s g c s C G x x x n c C I e S - 7 r g x u L U v l Y Y c C C : W u u g p n k c S C S c c G I ",
"A ' Y B S I G F G S J U A Y R n C v F M g l A x d s x c g C F U S q A q v c S R v v v ' T F U H = { i i u u x G A S c D G g x d ",
"D B m V B F M m H ( l U D j F M B S N k C d a V d k D d B B e D x k D k C C ^ t K M j C H C k M , ;.a u u V p G B F x A N k S H ",
"B m m V ^ F C H ` R ^ ( D U U K A A k h k N s d d u k N m k D D H H U F M Z F Z Z C M D C j B Z - [ 1 u N n n N B s D H d V T s ",
"m C V a B F / k T D D D M ( / M / s m N C V B B m d B m m a H V h d m F C ~ C Z C Z Z F l m B d , T u d c p p a s V B A d D V s ",
"F D N N H F ~ A ~ H V ) D C D ^ V T B x V V H k d D B a C d a m D s / ~ M F D X.M D ) ( s D k a = T N H N u p a e V N V H N D d ",
"D ^ B k B T m | F ( F H ..| M K S A G T A H G V H B B N s F d d F N D T } ( ..U ^ F ^ e d d N u = [ V p 8 u u p 8 a x B H V N V ",
"F S N d @._ ' X.' ) ( ^ _ ) M d x G H B G T B B D d d s d D B B m V { | | 3.=.} ^ ) U N d s a = # H d G a 8 p x u x a d V S V H ",
"N U B H D K S Y B D T K T | ) H H G T I G H I A V B m B k D S F D C H ( _ K Y O.D m M t a D S i % W a u e 8 u u x a H A U R C A ",
"' ( ' / T ' ' ..F ( ' ' T Y B T V V G R $.G T S ' ` U U Y Y H c ( C C | ] 9.| | D @._ ' F D c e o G 9 1 1 e a u x p T W ' ..[ T ",
"- : $ $ & = & & & & % % # @ $ # @ $ $ @ + + # $ @ $ % = # % # # @ @ & $ @ O @ @ $ @ % - : % - $ @ + @ # $ # # # $ # @ $ % % : , ",
"' :.,.<.O.O.a.O.&.-.R O.R r e.A F c L S R A R W Y | I V R G P I v P v c Z P c Y S D C i 6 e 7 r 8 u r u u u r G E &.=.<.{ { O.{ ",
"P Y R O.R E T ] P 1.] ] A 7 ,.c x k c A G U T C S E -.Y L v v S v J v c F S v P l i C i e u e u r u u 9 u i g k x I G G S F S Y ",
"f c c l j h h S S Z v v f * E i g u u p d i g x A h l c d g g l j v l j l l A l l v g r a a a s u u p i r r q i p p C i t C D C ",
"A P v v Z z b Z z Z L Z s * ' l l d h l g l c l v B l F G j b z c v v j z f l v j l f k C k B d x g 9 u i c k k l K K b S S U Z ",
"S J b P L b P L Z J Y F v 3 +.l P C C h v l l S Z Z Z J l n L P Z L L J b v v v S A b S C l B c d p x k g k c n C S @.b Y T F Y ",
"z J j J z b R L v P A S C 3 :.S l C C l Y S S Y U J J P E Z L L R b L P v R F L U Z v S C K C B c x T x l c v b J K b J J K y J ",
"P J P E P J b J E R z R A f O.C S J J Z Y R J U K J R Z P I Q J P I E I S R I J U S U R F U S Z A G v A c v j J J J _ E _ _ Y J ",
"Z R Z J L Z P S v S n c g q Q f l v J Z E Y Y E J Z U Y S b W v z z J S n P L S G v C S Y S C J L P b S b l z b b J ' E b z z K ",
"Z l j v Z v L S c v l S c > O.C D C b J J U J U K Z Z Z J A S Z Z v b n S S S n G G k A S Z S J S S n n z l l z J K ' Z K j y K ",
"Y Y S W S P I x n L c v k 6 *.n v v C Z Z J U T S K K S n S I R J L S n S n I G I G Z Z F Z K Y S Z b S n z c v z z Y Z Y U Z ] ",
"A l h c A n x c n n x c x : O.n A A Z v J U F U C S C C G S G n n S n c c n n n n x g c C v l F S Z n j n b v v b E Z z K F K z ",
"A v G G S S S G S n n c c 3 *.S S A L v L G S S C J A I G U R W R W I R n G n S c g x x l c v D C C C l x k v b U ( A c C D c J ",
"n F c C c x S c L x x x c 6 &.n S g S S G S C H F H C A n G G T G I g n G n c p x z l g l c v c C c A S c c k c L S g d s l C S ",
"c A R G x 8 g g k u u p x > P g b x c A B c g c x l g x C S B x x G c k c x n g x k k C B c l B C C l c c n x c C S g s g k p x ",
"k n i k n u g c x p i q r = Q g l i g p g x s d g p g g g g c G S G x x c c A n c c x k g g d g k g s g k k p p k V s i v n G k ",
"u A a t r g s 8 r 9 8 < 8 q 9 9 9 7 i u r q q r r u e q 6 9 r i 8 q r r r r 7 6 e g s p c i r u i r i t q q i f k i i < p g c G ",
"j.,.:.<.R &.=.-.R _ P ] L W W W Q Q ! ! >.o.Q Q ! Q L P O.E +.] &.&.-.<.-.f.s.w.w.<.E &.,.Q ! #.#.! +.E E ! E v n L I W G l I i ",
"g.W ] O.E E R _ E Y W R G I W R R W R R E ] E E W E P R L L ] W W R [ _ E E { ] W { W R n S R R E E v v b L Z v Z I E Z S E Q q ",
",.A f E A F P D S A R L C P R L L P Q R R Y U P P Y L E S S Y Y U I T W E I E L I L R W E L G L J R A Z n n v c J I P S v I Z i ",
"<.v E R Z Y Y P U Y F P I R W R R { R :.O.E E _ R I ' U E R ] E ' ' $.W w.=.Q Q W Q E W _ Y Y I L S G S I R J c I Y E l J F P 7 ",
"-.c ' ] ' C R U Y S S C n F L Y L U L W E _ R E Y P P J J A Y Y W I W I { ' [ &.{ ' W R R I D Y G Y G S c V v x J Y j S P L R 0 ",
"9.K S Y _ ( =.R ' T ] ' { W I { ' U R T _ Y K U R U J U J E L R =.=.[ $.&.;.W [ [ :.[ { ] _ R F R U R x x A S c F S Z @.C &.Y 2 ",
"] S S S ^ U T Z R R W R T ' T ( ( Y _ R Y R Y U Z J J U U Y T ' ' [ [ $.[ $.[ [ ' ] [ [ ' ..' R _ R c G S c g B S C Z U l R b 4 ",
"@.K Y r.=.K ..3.0.` $.$.W $.[ [ | | $...5..._ @.| ] ' ' E ' $...$.$.3.$.$.;.$.$.[ $.;.W | | @.| [ | ^ Y ( K S K _ Z ^ Z K ' ] 2 ",
"5.| U T U R ' @.$.[ I [ W $.I ..{ R | 3.6.| _ _ ..R R Y R ' U R ....` ..$.$.W W W [ H T ( ( _ ^ _ _ ' F U Y ( K ^ ^ ( C K Z K 4 ",
"=.Y T R ( U ( ' $.` ` ` [ W ` $.[ | ....| | } ( ` T ( R | [ [ [ $. .[ $.$.$.H $.[ R T ` ( ^ ^ ^ T Y U K K K U U J Z J K K _ U 4 ",
"R w B U ( ` T D T H H H H G T T ( U / ^ ' ( S B B c x V C C S H H T H T H T G n G A A H H Y F F l B C C C M B B t M C M k C C < ",
"{ i u G F T A D G D H H C D B G H / ( T ^ T H H S G V H V C G c V n H H H D G N N B B C A F U F D A D B G U C D T H V S s k m = ",
"$.I R E C W T H ` [ H T G G H G U A R R S A G S v L G S G G L L G T H W W H H H S H T I T H H S B C l B C n S c D T U B B T A < ",
"W c n T G n V G G H G ` R U H C H I T U L S c V n n n S L R L G A H T H H H H n H G G R ( G F c k k k k c v n Z A R R I S S U % ",
"W c G V x p x a N x x G W T S T I H I G G G n c v c c n S G S c G G n G V n G G C A C G F F S x c k C C G c S A L I G G G S C % ",
"# @ X @ @ @ $ @ $ # @ $ $ $ @ + + O O   . @ < $ & = # @ $ $ $ @ O O + O     - 9 % : - $ $ $ $ $ @ @ + O # . # : : - 9 9 : + #   ",
"*.a.>.1.O.] Q o.Q O.W &.L S L W 1.,.>.1.2.*.+.>.,.*.,.,.,.R S L u k.! O.,.<.! O.*.>.>.>.h.<.! Q O.R E S v l P ! L P h.a.d.Q ,.O.",
"T I S L A c x k S x n n n n S c J J S S S I S P n L S L A C L U 1 e.G G I G L n W n I I S v G v I L Z n J E P P J Q I I J J P v ",
"U R R [ C A T U R E { I L R I P P P P P I S I W E { ' =._ T ' ' u e.T T I I I L I n I I n Z n S A J S L Z P J P J E Q W Q ' _ C ",
"Y K J K Z K F U S Y I c S S l L L A v c l R Y @.E E ' | _ _ ' U g t.Y I n v A L Q L S I I S G A A E _ U C v C Z J z K K b J Z K ",
"_ _ ( ~ K C Z K S S _ v q c n b l v P ] L F F T Y ( _ ..U Z Y ( f { F _ =.I P Z I S I I P R R R R ' R T _ _ ( Y K Y ^ _ _ Y K _ ",
"^ K X.K } ' ' _ =...R I I n z I S Y E ' R ..=.=.{ @.3.X.| | J T l l._ ..[ R &.Q Q S I I R R R T ( ` ) ( ' ..' ' o.@.y | | z K K ",
"U K b r.y.( ..} | _ Q E I l Q n 7 -...R ..R ( %...X...@.3.| S ..5 x.0._ { [ I I ! I Q E W =.=.$.=.$.4.} 3.} ..( ^ X.@._ y.| _ _ ",
"h M F B 4.3.K ^ U ..{ @.F @.+.A C G ( T C ^ H ' F T ' ( ( H H 3.t ' ' 3...Y _ Y ] R E Q E $.R ' q.y.%. .} ) ) H K ^ _ ) ( } D C ",
"M ) k d ) Z D ( | | _ _ Z _ v ' A G ( T ' | ~ ( ^ } ` ( T A U S h 5.U X.X.@.| ( ] P P E W R ( |  .X.%. .) $./ / V F F ~ ( D D M ",
"=.| D / D U C D } F K _ R Y W t.W U [  ...^ ( H H ~ D D H H T ( ^ 9.H 3.X.r.@.{ ' &.] R O.{ $...%.q.%.%. . .$.%.X.^ } D ~ _ V K ",
"%.^ D F C ' }  .r.p._ u.r.] A Q R ' =.R ' / / ( ( 3.0.( 8.q.[ H B r.8.i.r.z.8.@.{ { -.W E $.W =. .%. .%.%.} %.) ) F C F F 7...6.",
"m e X.^ m D ( X.K 4.e.r.5.9.Y &.R B G H N x k V ^ ^ [ 6.X.3.) ^ C g.T | | ' T D C Y Z P S S S H H V H / / / / D A V d s B m M D ",
"p.F / D C X.H ( ( 8.3.l.| E S Y I S B C C H ` / } } u.8.y.8.u.} B z. .| 3.3.8.@.@.' Y E L I L H H H ~ / ~ ~ H ~ / } )  .8.X.8.c.",
"X.) X.H F  ...) ..8.} 4.O.@.S B k k c c S A ` H } y.q.6.y.6.u.} s r.^ 3.| X.| 9.] E I L c n k l V F V V D H H D H / } [ y.y.y.7.",
"X.~ }  ...^ F | } ( } ( _ S C a x p i V x V C F } ( ) } } X. .( ; l.F U 6.} ....&.' L I v S v R D u N V H V H H H T ^ ( Z ^ X.6."
};
