/* XPM */
static char *result[] = {
/* columns rows colors chars-per-pixel */
"64 64 222 2 ",
"   c #391D12",
".  c #3E2114",
"X  c #491E0F",
"o  c #46210F",
"O  c #442314",
"+  c #4C2514",
"@  c #4A2915",
"#  c #442518",
"$  c #4A2718",
"%  c #4C2A1B",
"&  c #542917",
"*  c #532D1C",
"=  c #55321C",
"-  c #5C331D",
";  c #5D391B",
":  c #65331A",
">  c #542F20",
",  c #453728",
"<  c #563222",
"1  c #5C3523",
"2  c #5A3925",
"3  c #583B2B",
"4  c #623622",
"5  c #643A25",
"6  c #6A3B25",
"7  c #643C2A",
"8  c #6A3E2B",
"9  c #733E23",
"0  c #4E4735",
"q  c #584333",
"w  c #584E3A",
"e  c #654126",
"r  c #65452D",
"t  c #6C422D",
"y  c #69482C",
"u  c #72432E",
"i  c #78472C",
"p  c #6D4430",
"a  c #6D4A33",
"s  c #6C4F3C",
"d  c #744631",
"f  c #764A33",
"g  c #7B4A35",
"h  c #7C4B34",
"j  c #60543E",
"k  c #74533B",
"l  c #7A5438",
"z  c #7E553A",
"x  c #665B43",
"c  c #7E5741",
"v  c #7C5C43",
"b  c #6C6047",
"n  c #6E6249",
"m  c #73664C",
"M  c #75684D",
"N  c #7A684E",
"B  c #766B50",
"V  c #7C6D51",
"C  c #7D7154",
"Z  c #884A2E",
"A  c #824E36",
"S  c #8A4F33",
"D  c #824F38",
"F  c #865135",
"G  c #8B5136",
"H  c #85513A",
"J  c #8C553C",
"K  c #8E593E",
"L  c #915436",
"P  c #91563C",
"I  c #93593E",
"U  c #9B5C3D",
"Y  c #A15E3F",
"T  c #845E45",
"R  c #8D5A41",
"E  c #955C41",
"W  c #9A5E42",
"Q  c #905D4B",
"!  c #A05F42",
"~  c #856245",
"^  c #8E6244",
"/  c #846149",
"(  c #8B654B",
")  c #936446",
"_  c #9D6145",
"`  c #9C654B",
"'  c #956C4C",
"]  c #9A6C4D",
"[  c #9A724E",
"{  c #8E6D56",
"}  c #986E52",
"|  c #837355",
" . c #867758",
".. c #87795A",
"X. c #8C7C5B",
"o. c #9D7354",
"O. c #97795B",
"+. c #A36346",
"@. c #A96747",
"#. c #A46945",
"$. c #AC6A47",
"%. c #A46649",
"&. c #AA6749",
"*. c #A6694B",
"=. c #AB6A4B",
"-. c #B16E4D",
";. c #A3784E",
":. c #B4714E",
">. c #B8734E",
",. c #B87A4E",
"<. c #A46C51",
"1. c #AC6E51",
"2. c #B16E50",
"3. c #A27353",
"4. c #AE7253",
"5. c #AA7758",
"6. c #A47B5C",
"7. c #AB7B5C",
"8. c #B47353",
"9. c #B97654",
"0. c #B57B53",
"q. c #BA7956",
"w. c #B37659",
"e. c #B57A5C",
"r. c #BB7C5B",
"t. c #9A7D62",
"y. c #A97D62",
"u. c #B47D62",
"i. c #BB7F61",
"p. c #C07F5D",
"a. c #8F805F",
"s. c #93815F",
"d. c #AD825D",
"f. c #BC8155",
"g. c #B2825E",
"h. c #BD825C",
"j. c #8F8160",
"k. c #948462",
"l. c #988764",
"z. c #978966",
"x. c #998966",
"c. c #9D8D6B",
"v. c #9F906E",
"b. c #9F9170",
"n. c #AC8463",
"m. c #A88667",
"M. c #AE866A",
"N. c #A18E6D",
"B. c #B48363",
"V. c #BE8263",
"C. c #B38A65",
"Z. c #B98964",
"A. c #B5846A",
"S. c #B9856A",
"D. c #B38C6B",
"F. c #BC8B6D",
"G. c #A0916F",
"H. c #B6916E",
"J. c #AB8F72",
"K. c #B58C73",
"L. c #BB8C72",
"P. c #A39474",
"I. c #A69877",
"U. c #A59778",
"Y. c #A6997A",
"T. c #A99C7D",
"R. c #B49174",
"E. c #BC9373",
"W. c #BB957A",
"Q. c #B7987C",
"!. c #C1805E",
"~. c #C48B5E",
"^. c #C28563",
"/. c #C28B64",
"(. c #C58C6C",
"). c #C7926D",
"_. c #C38E71",
"`. c #C49375",
"'. c #C39A76",
"]. c #CA9976",
"[. c #C3957C",
"{. c #C29C7D",
"}. c #C99B7C",
"|. c #AB9E81",
" X c #BD9C83",
".X c #B99D87",
"XX c #AEA185",
"oX c #AFA388",
"OX c #B1A387",
"+X c #B2A68B",
"@X c #BCA48B",
"#X c #B4A88E",
"$X c #B6AB92",
"%X c #B9AE95",
"&X c #BBAE9A",
"*X c #BBB097",
"=X c #BDB29B",
"-X c #BFB6A0",
";X c #C59B82",
":X c #C3A384",
">X c #CAA68A",
",X c #C9AA96",
"<X c #CDAC94",
"1X c #D1AC91",
"2X c #C0B59E",
"3X c #CBB29A",
"4X c #D5B599",
"5X c #C1B7A1",
"6X c #CDB6A4",
"7X c #C3B9A4",
"8X c #C6BDA9",
"9X c #CABEAB",
"0X c #D5BBA4",
"qX c #C7C0AD",
"wX c #C9C1AE",
"eX c #D9C4AD",
"rX c #CCC4B2",
"tX c #CFC8B7",
"yX c #D1C9B7",
"uX c #D2CBBB",
"iX c #E0C9B2",
"pX c #D7D0C2",
/* pixels */
"L.7.S.u.u.8.S.5.E E <.D.D.Q.T.k.I.Y.V v ) } {.<XD.y.] 3.5.e.e.h.).{.:X#XT.T.Y.oX+X2XT.c.Y.c.P.k.T.Y.#X$X%XoX&X#Xc.G.6.C.n.D.n.K.",
"&.*.8.8.9.-.V.V.V.h.8.B.e.e.#XT.N.$.-.r.-.8.-.Y +.>.r.:.-.2.8.r.V.`.`.`.5.` u.5.i.;X`.F.K..XyXrXqX7X8X8X6X6X,X;XS.u.u.2.` *.=._ ",
"+._ +.*.-.-.9.:.9.q.p.r.!.r.$X&X@Xr.9.8.:.:.-.+.@.$.@.+.! ! 1.8.8.e.i.w.w.1.=.q.!.).^.(.f.3.T.#X;X}.`.^.V.r.w.&.*.%.+.` _ +._ I ",
"E R E E ! +.-.&.=.=.9.!.9.-.|.8XT.9.$.@.+.W W J J F A i A E ! %.+.+.+.E &.h +.2.q.p.^.^.,.^ %X#XJ.r.h.r.:.=.&.W +.%.E E _ _ K K ",
"H h A A J E R E E _ &.2.q.2.+XrX|.-.$.+.%.W d 4 D P D g d P E W W W W %.J f H +.-.8.q.^.,.D.%Xz.3.i.r.8.2.&.W R E J H J A f A H ",
"d d g h h A R J J J E +.:.q.P.2XN.-.$.P G P g d P h A d 7 2 8 R W W ! W W H =.8.8.9.p.p.0.o.oX+Xy.^.p.8.8.&.) K f R h g h f A f ",
"d u u g H R J J d W H -.q.>.l.c. .@.! E J +.H A A f d p 8 f g D E W W E E &.=.8.r.q.r.r.,.M.T.I.} i.^.q.&.` I h J f d g A h D d ",
"d t f D h h d d J G E J 9.9.X.x | W +.+.E W H h J A H f g D z E %.W E W W *.-.-.-.9.q.9.,.z v.#X} r.i.8.*._ K K J p 7 p A A f h ",
"d h A J H J f u W A J J r.8.| x V U I A A i S P E J R E E R E W %.1.=.2.2.1.w.r.p.r.r.p.,.m.*XoX~ 8.^.r.=._ E H h f p f D H d d ",
"H R E W J I J I _ J 8.-.2.! m m w 1 * $ * 6 d i S E ` %.%.*.<.1.w.r.i.p.w.<.i.(.(.p.r.r.$.n.%XT.y.U -.p.h.8.) E R R g f D R D D ",
"%.` +._ E E E *.=.+.*.2.! L x n , % * - 9 A S S P P ! =.8.8.q.r.8.r.p.p.2.%.9.^.q.! W L 9 H c.P.o.+.Y U -.r.-.+.+.+.W E E R W W ",
"=.&.+.W W W U _ U W W P S h w m j 5 5 8 8 6 u 6 - * : 4 8 8 7 5 4 1 > 1 4 2 4 < * $ & + X w m c.<.I L U W -.9.=.1.%.+.%.! <.%.%.",
"& + & + + + O o o o O # - f z.oXT.' T T T T v T T { T k k t y a a y - = % ; < p d c c { O.I.Y.c.` ) W *.=.P 6 6 6 4 5 1 1 * % & ",
"w m n N X...X. .X.s.k.b.T.#X=X7X*X$X-X8XrXtXtXpXuX9XrXtXrXuXyXyX9X-X$X$X*X=X5X5X&X|.$X%X%X%X$X%X#XI.l.k.C x 3 2 5 e e 6 7 f r r ",
"2X%X+X*X8X=X%X%X5X=X-X=X=X7X8X*X=X-X8X8X=X9XrX8X8X&X.X$X=X#X8X8X-X#X|.8X8XoXz.z.k.Y.|.|.OX+X#X2X=X5X=X=XoX|.Y.Y.U.U.|.+X+X$X7X2X",
"k.T.%X8X8X-X=X7X=X%X%X-X*X$XoXP.U.t.$X$XoX+X|.b.|.Y.P.z.z.c.z.T.k.#X&XoX..| c.z.| l.l.c.l.l.X.N.N.P.G.c.P.Y.b.b.z.k.k.P.I.Y.P.k.",
"oX5X7X#X@XL.E. Xn.*.d.B.S.S.B.` u.[.L.A.1.u.u.S.S.e.V.u.;X6X8X-X.Xu.S.i.8.r.9.9.r._.^.^.^._._._.i.^.e.i.L.K. X X X,X Xy.|.|.|.|.",
";X>X<X;X;XL.w.u.e.e.L.S.1.*.<.*.w.e.w.1.*.%.&.&.2.8.r.8.1.,X8X=Xl.r.r.8.*.-.8.w.r.i.V.i.V._._.`.F.;X}.>X1X1X;X;X6X6X,X X$X%X#X$X",
"A.K.u.R R <.<.+.2.w.1.1.+._ _ W ` W +.+.J R *.=.*.8.q.9.U R.%X-Xk.w.2.1.%.` +.*.*.=.2.1.1.2.1.*.*.2.2.w.u.2.*.2.2.i.8.i.y.y...J.",
"S.r.w.w.w.8.1.8.2.=.&.+._ _ R I I J W E f E &.+.+.-.>.9.#.>X5X#XJ.r.=.+.! E ! R W 2.W %.W +.&.W ! =.%.! ! ! W &.&.=.=.2.+.5X9X|.",
"w.9.9.2.%.W +.W W W P W H J H J R A d d 7 J W W +.=.&.8.+.O.+X5Xc.8.&.W P ! E H W D A E E P W J E E J J D D A E P +.#.+.*.8X%Xc.",
"1.2.&.%.W J g p J t 7 A A h H J P J d 1 < p g A _ *.8.-.+.W.8X=Xt.w.*.%.E E P D W W P J J J J E A E J J H H P W J W +.+.G c.#Xc.",
"1.2.%.W I R d 7 f t h J g J H J J E E d 8 p f D K _ :.:.@.o.2X7XX.-.+.R W %.g P W ! +.E H J H J H d P G d H G P I W +.-.+.x.|.c.",
"%.2.! W E P H u A J u d H J H J G R W h d W %.W +.=.8.q.$.h =XrX| &.W E P R W J P W %.W I J E J P d H H A d R E E _ +.$.#.@X+Xa.",
"` 2.! R H H K h t D d A f F J _ W W ! R J I #.E E *.9.9.U t Y.a.V 9.%.R R W W W A &.&.` W J W _ E A h F J E ! W +.+.@.$.W y.b.j.",
"Q u.&.R J H J h H I J J I J E +.&.&.1.=.8.8.=.*.` 8.q.:.F a m x | U 2.! ! &.<.&.W $.+.&.+.W E &.E _ W _ _ *.&.&.=.&.$.$.Z { oX .",
"Q i.2.! E I _ I _ +.+.&.:.-.=.:.E W &.2.8.8.$.I P +.$.U A Q.$X|.O.D G ! &.<.&.! &.*.+.W +.&.&.+.*.+.&.*.=.=.$.-.:.:.$.+.S ..XX..",
"<.w.8.1.+._ I K K K F F h Z i 9 X X X $ 5 : ; ; : l K l / .X6X9X2X<.y.R R R R 4 < 6 < < < 7 2 > - * * 6 y H ^ 6.7.g.5.=.W t.%Xj.",
"A A F F 9 : 6 : - - ; e i l l [ n.D.n.O.c.| V C k.v.XX%X=X+X+X*X8X=X+X+X&X#X#X|.oXoXoX|.Y.+X#X|.c.G.T.T.G.P.I.T.T.I.I.c.l.l.z.C ",
"| V V |  .x.l.x.x.G.T.T.OXOXXXXX|.+XY.+XT.P.G.T.#X*XT.T.I.#X=X*XI.OX%X+X@X&X8X=X8X=X=X=X5XrX7X7X5X=X2X%XoX#X$X*XT.c.c.N.c.c.c.k.",
"Y.b.G.P.$X$X+XoXT.G.#XXXx.T.P.v.k.l.P.P.T.T.#X#X$XT.k.x.Y.+X=X#XP.OX#XOX#X%X&X&X8X7XoXoXk.b.P.X.c.Y.=X7X#Xv.%X%Xl.T.+XP.N.P.I.R.",
"%X#X+X+XY.I.I.oXOX=XT.c.P.x.G.k.Y.Y.+X$X:X'.>X{.n.C.5.H.C.E.D.W.n.H.C.B.5.D.7.) ^ o.M.D.Q.T.k.J.D.( c ) ] W.<XK.y.' 3.g.g.Z.F.E.",
"+XQ.E.`.6.' M.7.C.}.{.E.R.+XuX0X0X<X4X4X0X0X4X<X}.}.]./.f.h.h.0.0.f.h.f.0./.~.~.!.f.C.g.d.#XT.7.*.-.r.-.:.-.Y ! >.p.>.-.-.9.r.p.",
"w.w.w.5.r.9.q.r.V.(.^.(.8.t.|.#X:X}.`.^.^.^.^.8.9.8.9.0.8.q.9.q.0.q.q.q.8.,.>.q.r.q.r.h.r.$X%X;Xp.:.>.-.-.-.$.$.-.-.-.+.@.$.2.9.",
"*.*.*.+.*._ 8.9.q.r.!.^.8.V $X#XZ.r.r.8.-.-.1.+.=.-.=.=.=.:.&.=.8.8.2.=.#.&.>.-.:.r.!.:.:.XX8XA.8.$.+.U W +.+.W U P L P W _ &.2.",
"E E _ E +.H E +.=.=.8.p.:.P.%Xk.3.0.=.W E W R D R _ _ *.+.+.*.&.&.+.&.` *.-.8.+.&.&.8.q.8.oXqXA.$.W U W +.P I J P G D S J W +.&.",
"H f d J P h h P +._ *.0.2.l.+X+X7.e.=._ +.W g d f l H I E E W W _ _ +.E W +._ ) E W +.-.r.P.%X4.+.+.R P I I g i J H R g h H J E ",
"f d 8 A D d W %._ E E 8.>.I.T.I.o.9.=.+.W W R d 7 f d F P E E J E I E E J E +.I I W +.-.8.l.c.` ! P P f A G g A J g g 8 8 7 p A ",
"p 8 d d g P W W &.+.+.:.2.B c.+X' 8.4.*.E R h d h 8 7 f H J J J J H J E +.E I +.J %.W w.V.k.n ( J g u t g ! D A D g 7 7 7 d p f ",
"8 d h f A R W _ E E +.:.$.c.#X|./ 8.r.*.R H A d g a f h E R D D K H E E P J f J =.W *.%.q. .n ( H h u 6 8 P g d D 8 d 8 7 d d h ",
"g h J D J Q R ! *.+.=.8.+.T.OXY.m.I -.9.-.E J H J z f H R R R R E _ _ _ _ _ +.H =._ *.8.+.N V s 5 * * < 4 8 8 g h 8 d d d p d g ",
"R R E W E W W %.=.#._ U i | l.T.6._ +.Y :.h.8.#.+._ E E E R E W _ _ ` _ _ $.*.=.8.=.q.Y I n B q % * 1 6 i i A h A h h J H H R R ",
"2.&.*.=.2.%.E %.*.Y J F u 0 x X.*.I L U U $.8.-.8.-.=.&.+.&.%.W _ +.W W W K I Y W W U H k 0 n q 3 3 8 u S G H H E I W W *.&.1.w.",
"4 7 4 < 4 1 > > O . . % 5 x c.z.O.K G I +.D 6 6 6 4 4 1 > * $ * $ $ $ O O O . o O O   , q X.oXoXc.a.a.t. .B V M d : : : i 9 6 4 ",
"s f y ; = @ < 1 k ( d.C.'.#X*X%X#XD.y.O.} z t e r y r e 5 f r r v k ~ [ ' [ ' [ [ ;.g.H.+X=XrX8X%XP.c.c.z.t.X.X.|  .N k f a r a ",
"uX8X=X%X=X=X7XrXwX5XoX$X#X$X#X$X=X=X8X-X#XoXY.|.Y.U.XXOX+X$X7X=X%XOX*X7X2X$X$X2X=X2X&X2XwXrX-X#XoX$X*X8XrXuXtXpXuXrXtXtXeXeXeXiX",
"7X7X#XoX8XqX+Xk.k.X.P.|.#XoXY.T.XXT.|.b.T.XXb.U.v.k.k.b.b.Y.P.k.T.%X8X8X2X=X7X=X%X%X8X5X*X$XT.b.b.-XrXrX2X9XrX8X7X%XoX$X5X#XwX8X",
"T.k.#X%X+X..| c.k. .c.P.v.c.P.I.|.T.U.P.T.|.oXoX#X=X+Xb.XXXX|.|.7X2X+X#XT.T.+XP.k.P.Y.I.Y.Y...P.$XT.|.T.P.T.Y.c.|.Y.P.z.x.c.x.T.",
"3XK.D.S.e.8.f.f.f./.)./.).).].[.[.`.;X;X1X>X{.;X4X<X1X{.;X#X+X#X<X<X>XW.E.d.B.B.C.E.E.n.6.y.6.D.K.{.{.E.7.B.C.L.E.g.H.I.%X8X8X7X",
"@X3.2.=.<.%.&.:.9.r.r.r.p.r.r.8.2.2.2.r.r.w.=.2.8.r.8.e.5.y...U.K.y.R R <.*.*.w.w.w.w.=.&.*.-.-.q.e.r.r.w.9.r.2.-.>.r.:.4.=X8X=X",
":X` &._ W W E &.-.8.:.-.8.8.8.-.2.&.! &.*.+.! =.=.8.-.:.W ,XwXY.r.w.r.r.e.9.r.r.8.8.8.8.8.8.9.9.9.9.8.-.! *.9.w.-.2.r.9.W T.%X2X",
"R.3.&.E E E E h J =.W &.+.*.&._ &.! &.! W E W W _ &.-.+.=.3X%Xc.8.q.r.8.:.8.2.$.=.-.-.&.=.$.&.&.&.*.-.$.E 1.2.=.W &.&.8.@.=X7X#X",
"@X` +.J J W J d J f p W E J W I E E R E H g D E I I +.+.G 6.#Xl.9.2.-.=.E ` &.+.&.+.&.&.! %.%.&.2.+.J J h ! =.W W I K -.+.k.+X5X",
":X) _ E I E I h W &.W G P J A +.A ! A A A A R E A f A I P } P.s.-.+.E W P J g F E h H I E I +.&.&.&.H 7 2 7 4 d z J E #.$.$XrX7X",
"3X` *.I H &.J E _ =.2.E h A A J G 8 A H 8 g 8 G A h A P P u.T. .=.W J W %.&.h d I H I E H @.! ! &.-.&.d 7 8 d g d f _ -.4.z.8X8X",
"eX( :.*.W W &._ P _ *.E H H A h E 8 A A A 8 A H A A G I A } t.C %.E P J +.=.+.A I W H h W ! E &.+.&.! g p W E D J J =.e.8.B 8XuX",
"t.E h.e.+.=.=.1.R &.&.E J d A J H D A g g A H S A A G P i ~ P.M 1.E R D E ! 2.W J W H J H J W =.=.+.W g h l H f A E ,.h.$.b #Xz.",
"n ) @.^.Z.V.V.8.2.-.=.&.+.E E W W W E P P I E P P I I P A ( v.m 2.W W D W ! ! ! _ _ W P W J I W W I U J E K K H E 4.^.h.U m C M ",
"XXc.E W 8.^.S.9.-.:.-.&.! %.&.! +.+.W +.! W E E W ! W P H ( XX| &.&.! ! +.%.*.=.#.+._ Y ! W ! ! A A J E _ +._ J W $.9.=.K %X-XoX",
"rX8XM.K.*.*.E T < * 1 % $ $ < % # # # # > 1 8 z ` ! <.} ' o.a.m g g A A E ! E R H F u a 7 6 7 1 O     # 1 - ; e t E ` R ] $XrXrX",
"%XrXrX-X-X-X=X*XoX|.|.Y.P.b.T.|.J.3.6.n.D.6.6.c.P.b.l.k.s.z.z.a.~ K K K - & & + @ @ = ; e y a ^ <.n.6.o.d.[ ' [ m.Q.@X2X6X@X#X%X",
"&XoX=X-X=X=X-X-X*X5X%X$X&X*X8X=X5X&X$X%XoXT.|.+X%XU.c.c.b.I.T.I.v.c.c.c.P.P.c.x.s.c.P.P.I.T.I.I.T.|.P.+XoXT.Y.+X=X7XoX#XY.#X=X*X",
"+XXX$X=X$X$X*X&X$X-X&X|.Y. .z.z.V k.b.$X=X|.k.+X$XX.Y.#XT.T.+X#X#X$X#XoX%X$XXXT.P.s.T.P.X.G.x.s. .k.P.I.oX#X=X=X=X+Xc.z.Y.#X=X+X",
"XXY.XX|.I.x.P.k.m n | x.c.P.c. .z.c.n x m V |.&XN.k.V ..v.T.T.$X*X=X*X+XY.P.G.T.T.#XP.s.x.a.x.X.P.I.#X*X=X$X=X=Xb.I.z.XXb.oXb.XX"
};
